<svg id="Layer_1" data-name="Layer 1" xmlns="http://www.w3.org/2000/svg" viewBox="0 0 421.18 197.08"><defs><style>.cls-1{fill:#c8b577;}.cls-2{font-size:12px;fill:#c8b577;font-family:Avenir;}</style></defs><title>aurelia-logo</title><path class="cls-1" d="M469.56,282.95a39.28,39.28,0,0,0-1.24-7.33L468,274.56a0.14,0.14,0,0,0-.21-0.09l-5.88,3.4a2.29,2.29,0,0,0-1.15,2v4.82l-0.11.14a37.14,37.14,0,0,1-4.56.81l-0.16-.14v-9.56a0.26,0.26,0,0,1,.16-0.28L466,270a0.35,0.35,0,0,0,.14-0.46l-0.27-.58a38.44,38.44,0,0,0-3.52-6l-0.33-.46a0.35,0.35,0,0,0-.46-0.1L448.36,270a2.28,2.28,0,0,0-1.14,2v13.38a0.14,0.14,0,0,1-.16.14,36.65,36.65,0,0,1-4.56-.91l-0.11-.14v-16.4a0.26,0.26,0,0,1,.16-0.28l15.67-9a0.35,0.35,0,0,0,.07-0.56l-0.53-.51a39.45,39.45,0,0,0-6-4.71l-0.32-.21a0.35,0.35,0,0,0-.37,0l-16.31,9.41a2.29,2.29,0,0,0-1.14,2V280.8s0,0.14-.16.06l-0.56-.33a37.52,37.52,0,0,1-4.06-2.84l-0.05-.11V260.23A0.27,0.27,0,0,1,429,260l17-9.83a0.14,0.14,0,0,0,0-.26l-1.67-.62a38.59,38.59,0,0,0-10-2.27,0.77,0.77,0,0,0-.48.07l-11.9,6.87a1.6,1.6,0,0,1-1.6,0l-12-6.91-0.06-.07a36.46,36.46,0,0,1-2.29-6.73,0.07,0.07,0,0,1,.11-0.08l13.46,7.77a2.29,2.29,0,0,0,2.29,0l15.73-9.08a0.31,0.31,0,0,0,.17-0.22l0.05-.32a39.43,39.43,0,0,0,.55-6.54c0-.6,0-1.2,0-1.8l-0.06-1.38a0.14,0.14,0,0,0-.21-0.12l-17.18,9.91a0.29,0.29,0,0,1-.32,0l-15.37-8.88-0.07-.13a36.62,36.62,0,0,1,.64-4.89l0.21-.1,13.61,7.86a2.3,2.3,0,0,0,2.29,0l15.35-8.86a0.35,0.35,0,0,0,.17-0.39l-0.11-.46a38.8,38.8,0,0,0-2.33-6.76l-0.27-.59a0.35,0.35,0,0,0-.5-0.16l-13.29,7.67a0.29,0.29,0,0,1-.32,0l-11.79-6.81-0.06-.19a36.8,36.8,0,0,1,2.24-4l0.19,0,8.44,4.87a2.28,2.28,0,0,0,2.28,0L432,210.68a0.14,0.14,0,0,0,0-.2l-0.48-.69a39.57,39.57,0,0,0-4.57-5.49l-0.34-.34a0.35,0.35,0,0,0-.43-0.06L420.86,207a0.25,0.25,0,0,1-.33,0l-3.59-2.08c-0.1-.06-0.19-0.15,0-0.29a36.26,36.26,0,0,1,4.34-3.44l0.58-.4a0.23,0.23,0,0,0,.1-0.35l-0.82-1.21a0.25,0.25,0,0,0-.37-0.08l-0.59.4a39.27,39.27,0,0,0-5.73,4.74l-0.77.77a0.14,0.14,0,0,0,0,.22l5.88,3.4a2.29,2.29,0,0,0,2.3,0l4.17-2.41,0.18,0a37.24,37.24,0,0,1,3,3.55l0,0.21-8.28,4.78a0.26,0.26,0,0,1-.32,0l-9.85-5.69a0.35,0.35,0,0,0-.47.11l-0.37.54a38.51,38.51,0,0,0-3.39,6l-0.23.52a0.35,0.35,0,0,0,.15.45l13.18,7.61a2.29,2.29,0,0,0,2.29,0l11.59-6.69,0.21,0.07a36.65,36.65,0,0,1,1.49,4.41l-0.07.16-14.2,8.2a0.26,0.26,0,0,1-.32,0l-15.66-9a0.35,0.35,0,0,0-.52.22l-0.17.71a39.48,39.48,0,0,0-1.09,7.56l0,0.35a0.35,0.35,0,0,0,.18.32l16.31,9.42a2.29,2.29,0,0,0,2.29,0l14.41-8.32s0.13,0,.13.11,0,0.55,0,.65a37.54,37.54,0,0,1-.43,4.93l-0.07.1-15,8.67a0.27,0.27,0,0,1-.32,0l-17-9.83a0.14,0.14,0,0,0-.21.15l0.3,1.76a38.61,38.61,0,0,0,3,9.81,0.76,0.76,0,0,0,.3.38l12.38,7.15a1.6,1.6,0,0,1,.8,1.39v13.83l0,0.08a36.46,36.46,0,0,1-4.68,5.34l-0.12-.05V260.66a2.29,2.29,0,0,0-1.14-2l-15.73-9.08a0.31,0.31,0,0,0-.28,0l-0.3.11a39.4,39.4,0,0,0-5.94,2.79c-0.52.3-1,.62-1.53,0.94l-1.16.74a0.14,0.14,0,0,0,0,.24l17.17,9.92a0.29,0.29,0,0,1,.16.28v17.75l-0.08.13a36.59,36.59,0,0,1-4.56,1.89l-0.19-.14V268.51a2.3,2.3,0,0,0-1.15-2l-15.35-8.86a0.35,0.35,0,0,0-.42.05l-0.34.32a38.75,38.75,0,0,0-4.7,5.41l-0.37.52a0.35,0.35,0,0,0,.11.51l13.29,7.67a0.29,0.29,0,0,1,.16.28V286l-0.13.14a36.76,36.76,0,0,1-4.57,0l-0.12-.13V277a2.64,2.64,0,0,0-1.14-2.58l-10.14-5.85a0.14,0.14,0,0,0-.2.06l-0.35.73a39.88,39.88,0,0,0-2.49,6.73l-0.13.47a0.35,0.35,0,0,0,.16.4l5.35,3.09a0.25,0.25,0,0,1,.16.28v4.15c0,0.12,0,.23-0.23.17a36.29,36.29,0,0,1-5.15-2l-0.63-.31a0.23,0.23,0,0,0-.35.09l-0.64,1.31a0.25,0.25,0,0,0,.12.36l0.65,0.31a39.3,39.3,0,0,0,7,2.6l1.06,0.28a0.14,0.14,0,0,0,.18-0.14v-6.79a2.29,2.29,0,0,0-1.15-2L376,275.88l-0.07-.16a37.05,37.05,0,0,1,1.58-4.36l0.2-.07,8.28,4.78a0.26,0.26,0,0,1,.16.28v11.37a0.35,0.35,0,0,0,.32.35l0.63,0.05a38.44,38.44,0,0,0,6.92-.07l0.56-.06a0.35,0.35,0,0,0,.32-0.35V272.43a2.28,2.28,0,0,0-1.15-2l-11.59-6.69,0-.21a36.62,36.62,0,0,1,3.07-3.5l0.17,0,14.2,8.2a0.26,0.26,0,0,1,.16.28V286.6a0.35,0.35,0,0,0,.45.34l0.71-.21A39.4,39.4,0,0,0,408,283.9l0.34-.18a0.35,0.35,0,0,0,.19-0.31V264.59a2.29,2.29,0,0,0-1.14-2l-14.41-8.32s-0.11-.09,0-0.17l0.57-.32A37.46,37.46,0,0,1,398,251.7h0.12l15,8.67a0.27,0.27,0,0,1,.16.28v19.66a0.14,0.14,0,0,0,.23.11l1.38-1.14a38.63,38.63,0,0,0,7-7.54,0.76,0.76,0,0,0,.18-0.45V257a1.6,1.6,0,0,1,.8-1.39L434.37,249l0.09,0a36.46,36.46,0,0,1,7,1.38l0,0.13L428,258.25a2.29,2.29,0,0,0-1.14,2V278.4a0.31,0.31,0,0,0,.11.26l0.25,0.21a39.45,39.45,0,0,0,5.39,3.75c0.52,0.3,1,.58,1.58.86l1.23,0.64a0.14,0.14,0,0,0,.21-0.13V264.15a0.28,0.28,0,0,1,.16-0.28L451.13,255h0.15a36.67,36.67,0,0,1,3.92,3l0,0.23-13.61,7.86a2.3,2.3,0,0,0-1.14,2V285.8a0.35,0.35,0,0,0,.25.34l0.45,0.13a38.72,38.72,0,0,0,7,1.36l0.64,0.06a0.35,0.35,0,0,0,.39-0.35V272a0.29,0.29,0,0,1,.16-0.28l11.79-6.81,0.19,0a36.81,36.81,0,0,1,2.32,3.93l-0.06.19-8.44,4.87a2.28,2.28,0,0,0-1.14,2v11.71a0.14,0.14,0,0,0,.15.14l0.82-.07a39.67,39.67,0,0,0,7-1.21l0.47-.13a0.35,0.35,0,0,0,.26-0.34v-6.18a0.25,0.25,0,0,1,.16-0.28l3.59-2.07c0.1-.06.22-0.09,0.27,0.12a36.23,36.23,0,0,1,.81,5.48l0.05,0.7a0.23,0.23,0,0,0,.26.26l1.45-.1a0.25,0.25,0,0,0,.25-0.28Z" transform="translate(-210.35 -199.1)"/><path class="cls-1" d="M256.34,363.26a59.45,59.45,0,0,0-7.45-.47,85.44,85.44,0,0,0-9.91.47c-0.33.07-.2-0.73-0.07-0.8,3.19-.33,4.72-0.47,4.72-2.33s-1.26-5.12-2.46-8.45l-2-5.46h-15l-2.33,5.46c-1.66,4-2.86,6.59-2.86,8.45,0,1.6,1.33,2.06,4.39,2.33,0.2,0.07.33,0.86,0,.8a40.75,40.75,0,0,0-6.25-.47,35.32,35.32,0,0,0-6.59.47c-0.33.07-.2-0.73-0.07-0.8,4.46-.33,6.19-3.13,9.45-10.78l14-32.14a0.5,0.5,0,0,1,.8,0l12,32.14c3,8.18,4.19,10.38,9.65,10.78C256.54,362.52,256.74,363.32,256.34,363.26Zm-24-36.2-7.58,17.83h13.91Z" transform="translate(-210.35 -199.1)"/><path class="cls-1" d="M319.62,331.12v16.63c0,8.92-5.79,16.37-17.17,16.37-9.78,0-17.7-6.25-17.7-16.83V331.72c0-10.25-.27-10.18-6.19-10.85-0.2,0-.33-0.8,0-0.73a79.65,79.65,0,0,0,9.51.47,69.1,69.1,0,0,0,8.05-.47c0.4-.07.2,0.73,0.07,0.73-6.19.53-6.25,1-6.25,10.85V346c0,10.78,7.39,15.44,14.17,15.44,8.92,0,13.57-5,13.57-14.3v-16c0-8.65-.6-9.58-6.52-10.25-0.2,0-.33-0.8.07-0.73a56.56,56.56,0,0,0,8.18.47,46.52,46.52,0,0,0,6.65-.47c0.4-.07.27,0.73,0.07,0.73C320,321.4,319.62,322.87,319.62,331.12Z" transform="translate(-210.35 -199.1)"/><path class="cls-1" d="M399.14,364.25c-15,0-22.56-10.45-25.42-21a28.82,28.82,0,0,1-5.19.47,17.1,17.1,0,0,1-2.79-.13v8.05c0,9.85.07,10.31,6.25,10.78,0.13,0.07.33,0.86-.07,0.8a69.21,69.21,0,0,0-8.05-.47,78.27,78.27,0,0,0-9.51.47c-0.33.07-.2-0.73-0.07-0.8,6-.6,6.25-0.53,6.25-10.78v-20c0-7.72-.2-10-4-10a18.41,18.41,0,0,0-2.46.27c-0.2,0-.4-0.66-0.07-0.8,2.66-.86,9.05-1.06,16.17-1.06,9.31,0,16.9,2.86,16.9,10.11,0,3.73-2.26,9.12-9,11.91,3.46,9.71,13.77,21.42,21.16,21.42C399.33,363.46,399.53,364.25,399.14,364.25ZM369.33,321.4c-1.07,0-1.86.07-3,.13-0.4,1.33-.6,4.46-0.6,9.51V342.3c1.06,0.07,1.53.07,2.73,0.07,9.85,0,13.31-3.72,13.31-9.38C381.77,323.73,375.85,321.4,369.33,321.4Z" transform="translate(-210.35 -199.1)"/><path class="cls-1" d="M450.51,361.92a1.29,1.29,0,0,1-1.6,1.2c-2.4,0-6.52-.33-11.31-0.33-6.52,0-13.17.13-17.9,0.47-0.4.07-.2-0.73-0.07-0.8,6.72-.73,6.85-0.47,6.85-10.78v-20c0-10.38-.13-10-6.85-10.85-0.13,0-.33-0.8.07-0.73,4.72,0.33,11,.47,17.63.47,4.79,0,9.18-.2,12.71-0.47a13.67,13.67,0,0,0-.4,3.59c0,0.66.07,2,.13,2.53,0,0.2-.8.13-0.8,0-0.53-3-1.86-4-10.51-4h-6.39a69.22,69.22,0,0,0-.4,9.12v8.78h6.92c7.32,0,6.79-.67,7.19-2.46a1.09,1.09,0,0,1,.8,0,18.25,18.25,0,0,0-.47,4.19c0,0.73.07,2.13,0.13,2.66,0.07,0.2-.73.13-0.73,0-0.4-2.13-.73-3.06-6.92-3.06h-6.92v9.91c0,8.91,1.2,9.71,4.26,9.71h3.39c10.11,0,10.71-1,11.64-5.46a0.84,0.84,0,0,1,.8.13C451.5,357.47,450.91,360.53,450.51,361.92Z" transform="translate(-210.35 -199.1)"/><path class="cls-1" d="M512.19,361.92a1.32,1.32,0,0,1-1.6,1.2c-2.39,0-5.92-.33-10.71-0.33-6.59,0-13.77.13-18.56,0.47-0.33.07-.2-0.73,0-0.8,6.72-.73,6.79-0.47,6.79-10.78v-20c0-10.25-.27-10.18-6.19-10.85-0.2,0-.33-0.8,0-0.73a79.64,79.64,0,0,0,9.51.47,69.11,69.11,0,0,0,8.05-.47c0.4-.07.2,0.73,0.07,0.73-6.19.53-6.25,1-6.25,10.85v20c0,8.38.67,9.25,4.06,9.25H501c10.25,0,10.51-.67,11.38-4.53,0-.07.8-0.13,0.73,0.07A38.59,38.59,0,0,1,512.19,361.92Z" transform="translate(-210.35 -199.1)"/><path class="cls-1" d="M550.92,362.79a78.27,78.27,0,0,0-9.51.47c-0.4.07-.2-0.73-0.07-0.8,5.92-.6,6.25-0.53,6.25-10.78v-20c0-10.25-.33-10.18-6.25-10.85-0.13,0-.33-0.8.07-0.73a78.17,78.17,0,0,0,9.51.47,70,70,0,0,0,8.05-.47c0.33-.07.2,0.73,0,0.73-6.12.53-6.19,1-6.19,10.85v20c0,9.85.07,10.31,6.19,10.78,0.2,0.07.33,0.86,0,.8A70.13,70.13,0,0,0,550.92,362.79Z" transform="translate(-210.35 -199.1)"/><path class="cls-1" d="M631.3,363.26a59.45,59.45,0,0,0-7.45-.47,85.44,85.44,0,0,0-9.91.47c-0.33.07-.2-0.73-0.07-0.8,3.19-.33,4.72-0.47,4.72-2.33s-1.26-5.12-2.46-8.45l-2-5.46h-15l-2.33,5.46c-1.66,4-2.86,6.59-2.86,8.45,0,1.6,1.33,2.06,4.39,2.33,0.2,0.07.33,0.86,0,.8a40.76,40.76,0,0,0-6.25-.47,35.31,35.31,0,0,0-6.59.47c-0.33.07-.2-0.73-0.07-0.8,4.46-.33,6.19-3.13,9.45-10.78l14-32.14a0.5,0.5,0,0,1,.8,0l12,32.14c3,8.18,4.19,10.38,9.65,10.78C631.5,362.52,631.7,363.32,631.3,363.26Zm-24-36.2-7.58,17.83h13.91Z" transform="translate(-210.35 -199.1)"/><path class="cls-1" d="M294.16,395.94V396h-1.29L290,391.78h-4.16V396h-1.2V385.49h5.5a3.19,3.19,0,0,1,3.43,3.16,3,3,0,0,1-2.32,3Zm-8.33-5.28h4.25a2,2,0,1,0,0-4h-4.25v4Z" transform="translate(-210.35 -199.1)"/><path class="cls-1" d="M323.31,394.87V396h-8.18V385.49h8.1v1.14h-6.9v3.54h4.44v1.14h-4.44v3.55h7Z" transform="translate(-210.35 -199.1)"/><path class="cls-1" d="M343.79,394.63l0.66-1a5.59,5.59,0,0,0,4.1,1.39c2.09,0,3.34-.81,3.34-2.12,0-1.07-.95-1.23-3.61-1.58-2.06-.27-4.32-0.57-4.32-2.74,0-1.94,1.73-3.24,4.29-3.24a4.58,4.58,0,0,1,4.41,2.38l-1,.59c-0.41-1-1.54-1.82-3.45-1.82s-3,.84-3,2,1,1.35,3.25,1.66,4.67,0.42,4.67,2.71c0,2.12-1.93,3.3-4.58,3.3A6.94,6.94,0,0,1,343.79,394.63Z" transform="translate(-210.35 -199.1)"/><path class="cls-1" d="M375.55,385.49V396h-1.2V385.49h1.2Z" transform="translate(-210.35 -199.1)"/><path class="cls-1" d="M407.15,390.76a5.27,5.27,0,0,1-5.5,5.27h-4.07V385.49h4.07A5.27,5.27,0,0,1,407.15,390.76Zm-1.2,0a4.07,4.07,0,0,0-4.29-4.13h-2.86v8.24h2.86A4.06,4.06,0,0,0,405.95,390.76Z" transform="translate(-210.35 -199.1)"/><path class="cls-1" d="M436.73,394.87V396h-8.18V385.49h8.1v1.14h-6.9v3.54h4.44v1.14h-4.44v3.55h7Z" transform="translate(-210.35 -199.1)"/><path class="cls-1" d="M467.31,385.49V396h-1.07l-7.06-8.58V396H458V385.49h1.08l7,8.6v-8.6h1.2Z" transform="translate(-210.35 -199.1)"/><path class="cls-1" d="M488.73,390.76a5.22,5.22,0,0,1,5.42-5.42A5,5,0,0,1,498.8,388l-1,.59a3.8,3.8,0,0,0-3.6-2.11,4.27,4.27,0,0,0,0,8.54,3.81,3.81,0,0,0,3.63-2.09l1,0.59a5.07,5.07,0,0,1-4.68,2.67A5.26,5.26,0,0,1,488.73,390.76Z" transform="translate(-210.35 -199.1)"/><path class="cls-1" d="M528.31,394.87V396h-8.18V385.49h8.1v1.14h-6.9v3.54h4.44v1.14h-4.44v3.55h7Z" transform="translate(-210.35 -199.1)"/><path class="cls-1" d="M548.79,394.63l0.66-1a5.59,5.59,0,0,0,4.1,1.39c2.09,0,3.34-.81,3.34-2.12,0-1.07-.95-1.23-3.61-1.58-2.06-.27-4.32-0.57-4.32-2.74,0-1.94,1.73-3.24,4.29-3.24a4.58,4.58,0,0,1,4.41,2.38l-1,.59c-0.41-1-1.54-1.82-3.45-1.82s-3,.84-3,2,1,1.35,3.25,1.66,4.67,0.42,4.67,2.71c0,2.12-1.93,3.3-4.58,3.3A6.94,6.94,0,0,1,548.79,394.63Z" transform="translate(-210.35 -199.1)"/><text class="cls-2" transform="translate(353.65 187.47)">®</text></svg>