<?xml version="1.0" encoding="utf-8"?>
<!-- Generator: Adobe Illustrator 19.0.0, SVG Export Plug-In . SVG Version: 6.00 Build 0)  -->
<svg version="1.1" id="Layer_1" xmlns="http://www.w3.org/2000/svg" xmlns:xlink="http://www.w3.org/1999/xlink" x="0px" y="0px"
	 viewBox="-439 243 200 76" style="enable-background:new -439 243 200 76;" xml:space="preserve">
<style type="text/css">
	.st0{fill:#B4B4B4;}
</style>
<path class="st0" d="M-320.1,275.3c-0.1-1-0.2-1.9-0.5-2.8l-0.1-0.4c0,0,0,0,0,0c0,0,0,0,0,0s0,0,0,0c0,0,0,0,0,0l-2.3,1.3
	c-0.1,0.1-0.2,0.2-0.3,0.3c-0.1,0.1-0.1,0.3-0.1,0.4v1.9l0,0.1c-0.6,0.1-1.2,0.2-1.8,0.3l-0.1-0.1v-3.7c0-0.1,0-0.1,0.1-0.1l3.8-2.2
	c0,0,0.1,0,0.1-0.1c0,0,0-0.1,0-0.1l-0.1-0.2c-0.4-0.8-0.8-1.6-1.4-2.3l-0.1-0.2c0,0,0,0-0.1-0.1c0,0-0.1,0-0.1,0l-5.1,2.9
	c-0.1,0.1-0.2,0.2-0.3,0.3c-0.1,0.1-0.1,0.3-0.1,0.4v5.2c0,0,0,0,0,0c0,0,0,0,0,0c0,0,0,0,0,0c0,0,0,0,0,0c-0.6-0.1-1.2-0.2-1.8-0.4
	l0-0.1v-6.3c0,0,0,0,0-0.1c0,0,0,0,0.1,0l6.1-3.5c0,0,0,0,0,0c0,0,0,0,0-0.1c0,0,0,0,0-0.1c0,0,0,0,0-0.1l-0.2-0.2
	c-0.7-0.7-1.5-1.3-2.3-1.8l-0.1-0.1c0,0,0,0-0.1,0c0,0-0.1,0-0.1,0l-6.4,3.6c-0.1,0.1-0.2,0.2-0.3,0.3c-0.1,0.1-0.1,0.3-0.1,0.4v6.4
	c0,0,0,0.1-0.1,0l-0.2-0.1c-0.6-0.3-1.1-0.7-1.6-1.1c0,0,0,0,0,0v-6.7c0,0,0,0,0-0.1c0,0,0,0,0.1,0l6.6-3.8c0,0,0,0,0,0c0,0,0,0,0,0
	c0,0,0,0,0,0c0,0,0,0,0,0l-0.7-0.2c-1.3-0.5-2.6-0.8-3.9-0.9c-0.1,0-0.1,0-0.2,0l-4.6,2.6c-0.1,0.1-0.2,0.1-0.3,0.1
	c-0.1,0-0.2,0-0.3-0.1l-4.7-2.7l0,0c-0.4-0.8-0.7-1.7-0.9-2.6c0,0,0,0,0,0c0,0,0,0,0,0c0,0,0,0,0,0c0,0,0,0,0,0l5.2,3
	c0.1,0.1,0.3,0.1,0.4,0.1c0.2,0,0.3,0,0.4-0.1l6.1-3.5c0,0,0,0,0,0c0,0,0,0,0-0.1l0-0.1c0.1-0.8,0.2-1.7,0.2-2.5c0-0.2,0-0.5,0-0.7
	l0-0.5c0,0,0,0,0,0c0,0,0,0,0,0c0,0,0,0,0,0c0,0,0,0,0,0l-6.7,3.8c0,0-0.1,0-0.1,0l-6-3.4l0-0.1c0-0.6,0.1-1.3,0.3-1.9l0.1,0l5.3,3
	c0.1,0.1,0.3,0.1,0.4,0.1c0.2,0,0.3,0,0.4-0.1l6-3.4c0,0,0,0,0.1-0.1c0,0,0-0.1,0-0.1l0-0.2c-0.2-0.9-0.5-1.8-0.9-2.6l-0.1-0.2
	c0,0,0,0,0,0c0,0,0,0,0,0c0,0,0,0-0.1,0c0,0,0,0-0.1,0l-5.2,3c0,0-0.1,0-0.1,0l-4.6-2.6c0,0,0,0,0-0.1c0.3-0.5,0.5-1,0.9-1.5h0.1
	l3.3,1.9c0.1,0.1,0.3,0.1,0.4,0.1c0.2,0,0.3,0,0.4-0.1l4-2.3c0,0,0,0,0,0c0,0,0,0,0,0l-0.2-0.3c-0.5-0.8-1.1-1.5-1.8-2.1l-0.1-0.1
	c0,0,0,0-0.1,0c0,0-0.1,0-0.1,0l-2.1,1.2c0,0,0,0-0.1,0c0,0,0,0-0.1,0l-1.4-0.8c0,0-0.1-0.1,0-0.1c0.5-0.5,1.1-0.9,1.7-1.3l0.2-0.2
	c0,0,0,0,0,0c0,0,0,0,0,0c0,0,0,0,0,0c0,0,0,0,0,0l-0.3-0.5c0,0,0,0,0,0c0,0,0,0,0,0c0,0,0,0,0,0c0,0,0,0,0,0l-0.2,0.2
	c-0.8,0.5-1.5,1.1-2.2,1.8l-0.3,0.3c0,0,0,0,0,0c0,0,0,0,0,0c0,0,0,0,0,0c0,0,0,0,0,0l2.3,1.3c0.1,0.1,0.3,0.1,0.4,0.1
	s0.3,0,0.4-0.1l1.6-0.9h0.1c0.4,0.4,0.8,0.9,1.2,1.4c0,0,0,0.1,0,0.1l-3.2,1.8c-0.1,0-0.1,0-0.1,0l-3.8-2.2c0,0-0.1,0-0.1,0
	c0,0-0.1,0-0.1,0.1l-0.1,0.2c-0.5,0.7-1,1.5-1.3,2.3l-0.1,0.2c0,0,0,0.1,0,0.1s0,0.1,0.1,0.1l5.1,2.9c0.1,0.1,0.3,0.1,0.4,0.1
	s0.3,0,0.4-0.1l4.5-2.6l0.1,0c0.2,0.6,0.4,1.1,0.6,1.7l0,0.1l-5.5,3.2c0,0,0,0-0.1,0s0,0-0.1,0l-6.1-3.5c0,0,0,0-0.1,0
	c0,0,0,0-0.1,0s0,0,0,0c0,0,0,0,0,0.1l-0.1,0.3c-0.2,1-0.4,1.9-0.4,2.9v0.1c0,0,0,0,0,0.1c0,0,0,0,0.1,0.1l6.4,3.6
	c0.1,0.1,0.3,0.1,0.4,0.1c0.2,0,0.3,0,0.4-0.1l5.6-3.2c0,0,0.1,0,0.1,0c0,0.1,0,0.2,0,0.3c0,0.6-0.1,1.3-0.2,1.9l0,0l-5.8,3.3
	c0,0,0,0-0.1,0s0,0-0.1,0l-6.6-3.8c0,0,0,0,0,0c0,0,0,0,0,0c0,0,0,0,0,0c0,0,0,0,0,0l0.1,0.7c0.2,1.3,0.6,2.6,1.2,3.8
	c0,0.1,0.1,0.1,0.1,0.1l4.8,2.8c0.1,0.1,0.2,0.1,0.2,0.2c0.1,0.1,0.1,0.2,0.1,0.3v5.3v0c-0.5,0.7-1.2,1.4-1.8,2.1l0,0v-6
	c0-0.2,0-0.3-0.1-0.4c-0.1-0.1-0.2-0.2-0.3-0.3l-6.1-3.5c0,0,0,0-0.1,0c0,0,0,0-0.1,0l-0.1,0c-0.8,0.3-1.6,0.7-2.3,1.1
	c-0.2,0.1-0.4,0.2-0.6,0.4l-0.5,0.3c0,0,0,0,0,0s0,0,0,0c0,0,0,0,0,0c0,0,0,0,0,0l6.7,3.8c0,0,0.1,0,0.1,0.1v6.8c0,0,0,0,0,0.1
	c-0.6,0.3-1.2,0.5-1.8,0.7l-0.1-0.1v-6.1c0-0.2,0-0.3-0.1-0.4c-0.1-0.1-0.2-0.2-0.3-0.3l-6-3.4c0,0-0.1,0-0.1,0c0,0-0.1,0-0.1,0
	l-0.1,0.1c-0.7,0.6-1.3,1.3-1.8,2.1l-0.1,0.2c0,0,0,0,0,0.1c0,0,0,0,0,0.1c0,0,0,0,0,0.1c0,0,0,0,0,0l5.2,3c0,0,0.1,0,0.1,0.1v5.3
	l-0.1,0.1c-0.6,0-1.2,0-1.8,0l-0.1-0.1V273c0-0.2,0-0.4-0.1-0.6c-0.1-0.2-0.2-0.3-0.4-0.4l-3.9-2.3c0,0,0,0,0,0c0,0,0,0,0,0
	c0,0,0,0,0,0c0,0,0,0,0,0l-0.1,0.3c-0.4,0.8-0.7,1.7-1,2.6l0,0.2c0,0,0,0.1,0,0.1c0,0,0,0.1,0.1,0.1l2.1,1.2c0,0,0,0,0.1,0
	c0,0,0,0,0,0.1v1.6c0,0,0,0.1-0.1,0.1c-0.7-0.2-1.4-0.5-2-0.8l-0.2-0.1c0,0,0,0,0,0c0,0,0,0,0,0c0,0,0,0,0,0c0,0,0,0,0,0l-0.2,0.5
	c0,0,0,0,0,0c0,0,0,0,0,0s0,0,0,0c0,0,0,0,0,0l0.3,0.1c0.9,0.4,1.8,0.8,2.7,1l0.4,0.1c0,0,0,0,0,0c0,0,0,0,0,0c0,0,0,0,0,0
	c0,0,0,0,0,0v-2.6c0-0.2,0-0.3-0.1-0.4c-0.1-0.1-0.2-0.2-0.3-0.3l-1.7-1l0-0.1c0.2-0.6,0.4-1.1,0.6-1.7l0.1,0l3.2,1.8
	c0.1,0,0.1,0,0.1,0.1v4.4c0,0,0,0.1,0,0.1c0,0,0.1,0,0.1,0l0.2,0c0.9,0.1,1.8,0.1,2.7,0l0.2,0c0,0,0.1,0,0.1,0c0,0,0-0.1,0-0.1v-5.9
	c0-0.2,0-0.3-0.1-0.4c-0.1-0.1-0.2-0.2-0.3-0.3l-4.5-2.6c0,0,0-0.1,0-0.1c0.4-0.5,0.8-0.9,1.2-1.3h0.1l5.5,3.2c0,0,0,0,0.1,0
	c0,0,0,0,0,0.1v7c0,0,0,0,0,0.1c0,0,0,0,0,0c0,0,0,0,0.1,0c0,0,0,0,0.1,0l0.3-0.1c0.9-0.3,1.9-0.6,2.7-1.1l0.1-0.1c0,0,0,0,0.1-0.1
	c0,0,0,0,0-0.1v-7.3c0-0.2,0-0.3-0.1-0.4c-0.1-0.1-0.2-0.2-0.3-0.3l-5.6-3.2c0,0,0,0,0-0.1l0.2-0.1c0.6-0.3,1.1-0.6,1.7-0.8h0.1
	l5.8,3.3c0,0,0,0,0,0c0,0,0,0,0,0.1v7.6c0,0,0,0,0,0c0,0,0,0,0,0c0,0,0,0,0,0c0,0,0,0,0,0l0.5-0.4c1-0.8,2-1.8,2.7-2.9
	c0,0,0.1-0.1,0.1-0.2v-5.5c0-0.1,0-0.2,0.1-0.3c0.1-0.1,0.1-0.2,0.2-0.2l4.5-2.5h0c0.9,0.1,1.8,0.3,2.7,0.5v0.1l-5.2,3
	c-0.1,0.1-0.2,0.2-0.3,0.3s-0.1,0.3-0.1,0.4v7c0,0,0,0,0,0.1c0,0,0,0,0,0l0.1,0.1c0.7,0.5,1.4,1,2.1,1.4c0.2,0.1,0.4,0.2,0.6,0.3
	l0.5,0.2c0,0,0,0,0,0c0,0,0,0,0,0c0,0,0,0,0,0c0,0,0,0,0,0v-7.6c0-0.1,0-0.1,0.1-0.1l6-3.4h0.1c0.5,0.4,1,0.7,1.5,1.2
	c0,0,0,0.1,0,0.1l-5.3,3c-0.1,0.1-0.3,0.2-0.3,0.3c-0.1,0.1-0.1,0.3-0.1,0.4v6.8c0,0,0,0.1,0,0.1c0,0,0,0,0.1,0l0.2,0.1
	c0.9,0.3,1.8,0.4,2.7,0.5l0.2,0c0,0,0,0,0.1,0c0,0,0,0,0,0c0,0,0,0,0,0c0,0,0,0,0-0.1v-5.9c0,0,0-0.1,0.1-0.1l4.6-2.6h0.1
	c0.3,0.5,0.6,1,0.9,1.5c0,0,0,0,0,0.1l-3.3,1.9c-0.1,0.1-0.2,0.2-0.3,0.3c-0.1,0.1-0.1,0.3-0.1,0.4v4.5c0,0,0,0,0,0c0,0,0,0,0,0
	l0.3,0c0.9-0.1,1.8-0.2,2.7-0.5l0.2,0c0,0,0.1,0,0.1,0c0,0,0-0.1,0-0.1v-2.4c0,0,0,0,0-0.1c0,0,0,0,0.1,0l1.4-0.8c0,0,0.1,0,0.1,0
	c0.2,0.7,0.3,1.4,0.3,2.1v0.3c0,0,0,0,0,0c0,0,0,0,0,0c0,0,0,0,0,0c0,0,0,0,0,0l0.6,0c0.1,0,0.1,0,0.1-0.1L-320.1,275.3z"/>
<path class="st0" d="M-403.1,306.3c-1-0.1-1.9-0.2-2.9-0.2c-1.3,0-2.6,0-3.9,0.2c-0.1,0-0.1-0.3,0-0.3c1.2-0.1,1.8-0.2,1.8-0.9
	s-0.5-2-1-3.3l-0.8-2.1h-5.8l-0.9,2.1c-0.6,1.5-1.1,2.5-1.1,3.3c0,0.6,0.5,0.8,1.7,0.9c0.1,0,0.1,0.3,0,0.3
	c-0.8-0.1-1.6-0.2-2.4-0.2c-0.9,0-1.7,0-2.6,0.2c-0.1,0-0.1-0.3,0-0.3c1.7-0.1,2.4-1.2,3.7-4.2l5.5-12.4c0,0,0,0,0.1-0.1
	c0,0,0.1,0,0.1,0s0.1,0,0.1,0c0,0,0.1,0,0.1,0.1l4.7,12.4c1.2,3.2,1.6,4,3.8,4.2C-403,306-402.9,306.3-403.1,306.3z M-412.4,292.3
	l-3,6.9h5.4L-412.4,292.3z"/>
<path class="st0" d="M-378.4,293.9v6.4c0,3.4-2.3,6.3-6.7,6.3c-3.8,0-6.9-2.4-6.9-6.5v-6c0-4-0.1-3.9-2.4-4.2c-0.1,0-0.1-0.3,0-0.3
	c1.2,0.1,2.5,0.2,3.7,0.2c1,0,2.1-0.1,3.1-0.2c0.2,0,0.1,0.3,0,0.3c-2.4,0.2-2.4,0.4-2.4,4.2v5.5c0,4.2,2.9,6,5.5,6
	c3.5,0,5.3-1.9,5.3-5.5v-6.2c0-3.3-0.2-3.7-2.5-4c-0.1,0-0.1-0.3,0-0.3c1.1,0.1,2.1,0.2,3.2,0.2c0.9,0,1.7-0.1,2.6-0.2
	c0.2,0,0.1,0.3,0,0.3C-378.3,290.2-378.4,290.7-378.4,293.9z"/>
<path class="st0" d="M-347.5,306.7c-5.8,0-8.8-4-9.9-8.1c-0.7,0.1-1.3,0.2-2,0.2c-0.4,0-0.7,0-1.1-0.1v3.1c0,3.8,0,4,2.4,4.2
	c0.1,0,0.1,0.3,0,0.3c-1-0.1-2.1-0.2-3.1-0.2c-1.2,0-2.5,0-3.7,0.2c-0.1,0-0.1-0.3,0-0.3c2.3-0.2,2.4-0.2,2.4-4.2v-7.7
	c0-3-0.1-3.9-1.6-3.9c-0.3,0-0.6,0-1,0.1c-0.1,0-0.2-0.3,0-0.3c1-0.3,3.5-0.4,6.3-0.4c3.6,0,6.6,1.1,6.6,3.9c0,1.4-0.9,3.5-3.5,4.6
	c1.3,3.7,5.4,8.3,8.2,8.3C-347.4,306.4-347.3,306.7-347.5,306.7z M-359.1,290.2c-0.4,0-0.7,0-1.2,0.1c-0.2,0.5-0.2,1.7-0.2,3.7v4.3
	c0.4,0,0.6,0,1.1,0c3.8,0,5.2-1.4,5.2-3.6C-354.2,291.1-356.6,290.2-359.1,290.2z"/>
<path class="st0" d="M-327.5,305.8c-0.1,0.4-0.2,0.5-0.6,0.5c-0.9,0-2.5-0.1-4.4-0.1c-2.5,0-5.1,0.1-7,0.2c-0.2,0-0.1-0.3,0-0.3
	c2.6-0.3,2.7-0.2,2.7-4.2v-7.7c0-4-0.1-3.9-2.7-4.2c-0.1,0-0.1-0.3,0-0.3c1.8,0.1,4.3,0.2,6.9,0.2c1.9,0,3.6-0.1,4.9-0.2
	c-0.1,0.5-0.2,0.9-0.2,1.4c0,0.3,0,0.8,0.1,1c0,0.1-0.3,0.1-0.3,0c-0.2-1.2-0.7-1.5-4.1-1.5h-2.5c-0.1,1.2-0.2,2.3-0.2,3.5v3.4h2.7
	c2.9,0,2.6-0.3,2.8-0.9c0,0,0.3-0.1,0.3,0c-0.1,0.5-0.2,1.1-0.2,1.6c0,0.3,0,0.8,0.1,1c0,0.1-0.3,0.1-0.3,0
	c-0.2-0.8-0.3-1.2-2.7-1.2h-2.7v3.8c0,3.4,0.5,3.7,1.7,3.7h1.3c3.9,0,4.2-0.4,4.5-2.1c0,0,0.3,0,0.3,0.1
	C-327.1,304.1-327.3,305.2-327.5,305.8z"/>
<path class="st0" d="M-303.5,305.8c-0.1,0.4-0.3,0.5-0.6,0.5c-0.9,0-2.3-0.1-4.2-0.1c-2.6,0-5.4,0.1-7.2,0.2c-0.1,0-0.1-0.3,0-0.3
	c2.6-0.3,2.6-0.2,2.6-4.2v-7.7c0-4-0.1-3.9-2.4-4.2c-0.1,0-0.1-0.3,0-0.3c1.2,0.1,2.5,0.2,3.7,0.2c1,0,2.1-0.1,3.1-0.2
	c0.2,0,0.1,0.3,0,0.3c-2.4,0.2-2.4,0.4-2.4,4.2v7.7c0,3.2,0.3,3.6,1.6,3.6h1.4c4,0,4.1-0.3,4.4-1.7c0,0,0.3-0.1,0.3,0
	C-303.2,304.4-303.3,305.1-303.5,305.8z"/>
<path class="st0" d="M-288.4,306.1c-1.2,0-2.5,0-3.7,0.2c-0.2,0-0.1-0.3,0-0.3c2.3-0.2,2.4-0.2,2.4-4.2v-7.7c0-4-0.1-3.9-2.4-4.2
	c0,0-0.1-0.3,0-0.3c1.2,0.1,2.5,0.2,3.7,0.2c1,0,2.1-0.1,3.1-0.2c0.1,0,0.1,0.3,0,0.3c-2.4,0.2-2.4,0.4-2.4,4.2v7.7
	c0,3.8,0,4,2.4,4.2c0.1,0,0.1,0.3,0,0.3C-286.3,306.2-287.3,306.1-288.4,306.1z"/>
<path class="st0" d="M-257.1,306.3c-1-0.1-1.9-0.2-2.9-0.2c-1.3,0-2.6,0-3.9,0.2c-0.1,0-0.1-0.3,0-0.3c1.2-0.1,1.8-0.2,1.8-0.9
	s-0.5-2-1-3.3l-0.8-2.1h-5.8l-0.9,2.1c-0.7,1.5-1.1,2.5-1.1,3.3c0,0.6,0.5,0.8,1.7,0.9c0.1,0,0.1,0.3,0,0.3
	c-0.8-0.1-1.6-0.2-2.4-0.2c-0.9,0-1.7,0-2.6,0.2c-0.1,0-0.1-0.3,0-0.3c1.7-0.1,2.4-1.2,3.7-4.2l5.5-12.4c0,0,0,0,0.1-0.1
	c0,0,0.1,0,0.1,0c0,0,0.1,0,0.1,0c0,0,0.1,0,0.1,0.1l4.7,12.4c1.2,3.2,1.6,4,3.8,4.2C-257,306-256.9,306.3-257.1,306.3z
	 M-266.4,292.3l-3,6.9h5.4L-266.4,292.3z"/>
<path class="st0" d="M-388.4,318.9L-388.4,318.9l-0.5,0l-1.1-1.6h-1.6v1.6h-0.5v-4.1h2.1c0.2,0,0.3,0,0.5,0.1
	c0.2,0.1,0.3,0.1,0.4,0.3c0.1,0.1,0.2,0.3,0.3,0.4c0.1,0.2,0.1,0.3,0.1,0.5c0,0.3-0.1,0.5-0.2,0.7c-0.2,0.2-0.4,0.4-0.7,0.4
	L-388.4,318.9z M-391.6,316.9h1.7c0.2,0,0.4-0.1,0.6-0.2c0.1-0.1,0.2-0.3,0.2-0.5c0-0.2-0.1-0.4-0.2-0.5c-0.1-0.1-0.3-0.2-0.6-0.2
	h-1.7V316.9z"/>
<path class="st0" d="M-377,318.5v0.4h-3.2v-4.1h3.2v0.4h-2.7v1.4h1.7v0.4h-1.7v1.4H-377z"/>
<path class="st0" d="M-369,318.4l0.3-0.4c0.2,0.2,0.5,0.3,0.7,0.4c0.3,0.1,0.6,0.1,0.9,0.1c0.8,0,1.3-0.3,1.3-0.8
	c0-0.4-0.4-0.5-1.4-0.6c-0.8-0.1-1.7-0.2-1.7-1.1c0-0.7,0.7-1.2,1.7-1.2c0.3,0,0.7,0,1,0.2s0.6,0.4,0.7,0.7l-0.4,0.2
	c-0.2-0.4-0.6-0.7-1.3-0.7c-0.7,0-1.2,0.3-1.2,0.8c0,0.4,0.4,0.5,1.3,0.6c0.9,0.1,1.8,0.2,1.8,1c0,0.8-0.8,1.3-1.8,1.3
	C-367.8,319-368.5,318.8-369,318.4z"/>
<path class="st0" d="M-356.7,314.9v4.1h-0.5v-4.1H-356.7z"/>
<path class="st0" d="M-344.4,316.9c0,0.3-0.1,0.5-0.2,0.8c-0.1,0.3-0.3,0.5-0.5,0.7c-0.2,0.2-0.4,0.3-0.7,0.4s-0.5,0.1-0.8,0.1h-1.6
	v-4.1h1.6c0.3,0,0.6,0,0.8,0.1c0.3,0.1,0.5,0.2,0.7,0.4c0.2,0.2,0.4,0.4,0.5,0.7C-344.4,316.4-344.4,316.6-344.4,316.9z
	 M-344.8,316.9c0-0.2,0-0.4-0.1-0.6c-0.1-0.2-0.2-0.4-0.4-0.5c-0.2-0.1-0.3-0.3-0.5-0.3c-0.2-0.1-0.4-0.1-0.6-0.1h-1.1v3.2h1.1
	c0.2,0,0.4,0,0.6-0.1s0.4-0.2,0.6-0.3c0.2-0.1,0.3-0.3,0.4-0.5C-344.9,317.3-344.8,317.1-344.8,316.9L-344.8,316.9z"/>
<path class="st0" d="M-332.8,318.5v0.4h-3.2v-4.1h3.2v0.4h-2.7v1.4h1.7v0.4h-1.7v1.4H-332.8z"/>
<path class="st0" d="M-320.9,314.9v4.1h-0.4l-2.7-3.3v3.3h-0.5v-4.1h0.4l2.7,3.3v-3.3H-320.9z"/>
<path class="st0" d="M-312.6,316.9c0-0.3,0-0.6,0.1-0.8c0.1-0.3,0.3-0.5,0.5-0.7c0.2-0.2,0.4-0.4,0.7-0.5c0.3-0.1,0.5-0.1,0.8-0.1
	c0.4,0,0.7,0.1,1.1,0.3c0.3,0.2,0.6,0.4,0.8,0.8l-0.4,0.2c-0.1-0.3-0.3-0.5-0.6-0.6c-0.2-0.1-0.5-0.2-0.8-0.2
	c-0.4,0-0.9,0.2-1.2,0.5c-0.3,0.3-0.5,0.7-0.5,1.2c0,0.4,0.2,0.9,0.5,1.2c0.3,0.3,0.7,0.5,1.2,0.5c0.3,0,0.6-0.1,0.8-0.2
	c0.3-0.1,0.5-0.4,0.6-0.6l0.4,0.2c-0.2,0.3-0.4,0.6-0.8,0.8c-0.3,0.2-0.7,0.3-1.1,0.3c-0.3,0-0.6,0-0.8-0.1
	c-0.3-0.1-0.5-0.3-0.7-0.5c-0.2-0.2-0.4-0.4-0.5-0.7C-312.6,317.5-312.6,317.2-312.6,316.9z"/>
<path class="st0" d="M-297.2,318.5v0.4h-3.2v-4.1h3.2v0.4h-2.7v1.4h1.7v0.4h-1.7v1.4H-297.2z"/>
<path class="st0" d="M-289.2,318.4l0.3-0.4c0.2,0.2,0.5,0.3,0.7,0.4c0.3,0.1,0.6,0.1,0.9,0.1c0.8,0,1.3-0.3,1.3-0.8
	c0-0.4-0.4-0.5-1.4-0.6c-0.8-0.1-1.7-0.2-1.7-1.1c0-0.7,0.7-1.2,1.7-1.2c0.9,0,1.5,0.4,1.7,0.9l-0.4,0.2c-0.2-0.4-0.6-0.7-1.3-0.7
	c-0.7,0-1.2,0.3-1.2,0.8c0,0.4,0.4,0.5,1.3,0.6c0.9,0.1,1.8,0.2,1.8,1c0,0.8-0.7,1.3-1.8,1.3C-288,319-288.7,318.8-289.2,318.4z"/>
</svg>
